<?xml version="1.0" encoding="UTF-8"?>
<svg xmlns="http://www.w3.org/2000/svg" version="1.1" viewBox="0 0 1920 650.5">
  <defs>
    <style>
      .cls-1 {
        fill: #0abab5;
      }
    </style>
  </defs>
  <!-- Generator: Adobe Illustrator 28.7.4, SVG Export Plug-In . SVG Version: 1.2.0 Build 166)  -->
  <g>
    <g id="Capa_1">
      <g>
        <g>
          <path class="cls-1" d="M611.93,180.2v180.82h-27v-180.82h-48.42v-26.87h123.83v26.87h-48.42Z"/>
          <path class="cls-1" d="M800.54,153.33h27v146.29c-2.34,16.7-9.22,30.81-20.64,42.32-13.85,13.84-30.5,20.77-49.97,20.77s-36.11-6.9-49.91-20.7c-13.8-13.8-20.7-30.44-20.7-49.91v-138.76h27v138.76c0,11.94,4.26,22.18,12.78,30.7,8.52,8.52,18.8,12.78,30.83,12.78s22.41-4.24,30.89-12.72c8.48-8.48,12.72-18.73,12.72-30.76v-138.76Z"/>
          <path class="cls-1" d="M917.88,294.56h-24.53v66.46h-26.87v-207.69h58.93c16.7,2.25,30.81,9.13,42.32,20.64,13.76,13.85,20.64,30.46,20.64,49.84s-6.88,36.26-20.64,50.1c-9.52,9.52-16.79,14.88-21.81,16.1l46.08,71h-32.58l-41.54-66.46ZM893.35,180.33v87.23h24.53c11.94,0,22.17-4.26,30.7-12.78,8.52-8.52,12.79-18.84,12.79-30.96s-4.26-22.28-12.79-30.76c-8.52-8.48-18.76-12.72-30.7-12.72h-24.53Z"/>
          <path class="cls-1" d="M1165.94,353.88c1.99,1.21,4.07,2.6,6.23,4.15,6.06,3.2,10.17,5.15,12.33,5.84.95.26,1.86.39,2.73.39,1.47,0,2.94-.43,4.41-1.3,2.25-1.3,3.72-3.2,4.41-5.71.26-.78.56-3.98.91-9.61h27.13c-.61,8.48-1.3,14.1-2.08,16.88-2.77,9.6-8.52,16.83-17.26,21.68-5.54,3.2-11.34,4.8-17.39,4.8-3.38,0-6.75-.48-10.13-1.43-5.54-1.47-12.94-5.19-22.2-11.16-7.44-3.89-12.59-6.28-15.45-7.14-1.64-.44-3.2-.65-4.67-.65-2.6,0-5.11.69-7.53,2.07-3.98,2.25-6.58,5.62-7.79,10.13-.17.43-.48,3.29-.91,8.57h-27.13c.69-8.22,1.38-13.59,2.08-16.09,1.47-5.28,3.72-9.95,6.75-14.02-20.42-3.9-38.42-13.63-54-29.21-20.77-20.77-31.15-45.82-31.15-75.16s10.38-54.39,31.15-75.16c20.77-20.77,45.82-31.15,75.16-31.15s54.39,10.38,75.16,31.15c20.77,20.77,31.15,45.82,31.15,75.16s-10.38,54.39-31.15,75.16c-9.35,9.35-19.6,16.62-30.76,21.81ZM1121.54,177.74c-21.89,0-40.56,7.72-56.01,23.17-15.45,15.45-23.17,34.12-23.17,56.01s7.74,40.59,23.23,56.08c15.49,15.49,34.14,23.23,55.95,23.23s40.56-7.74,56.01-23.23c15.45-15.49,23.17-34.18,23.17-56.08s-7.72-40.56-23.17-56.01c-15.45-15.45-34.12-23.17-56.01-23.17Z"/>
          <path class="cls-1" d="M1377.91,153.33h27v146.29c-2.34,16.7-9.22,30.81-20.64,42.32-13.85,13.84-30.5,20.77-49.97,20.77s-36.11-6.9-49.91-20.7c-13.81-13.8-20.7-30.44-20.7-49.91v-138.76h27v138.76c0,11.94,4.26,22.18,12.78,30.7,8.52,8.52,18.8,12.78,30.83,12.78s22.41-4.24,30.89-12.72c8.48-8.48,12.72-18.73,12.72-30.76v-138.76Z"/>
          <path class="cls-1" d="M1555.74,153.33v26.87h-85.02v63.47h85.02v26.87h-85.02v63.47h85.02v27h-111.89v-207.69h111.89Z"/>
          <path class="cls-1" d="M1644.26,254.45c-14.71-4.93-26.63-11.96-35.76-21.09-9.13-9.13-13.69-20.44-13.69-33.94s4.74-24.62,14.21-34.14c9.48-9.52,20.96-14.28,34.46-14.28s24.75,4.72,34.27,14.15c5.37,5.19,9.86,13.46,13.5,24.79l-24.4,9.6c-2.94-7.96-5.63-13.15-8.05-15.57-4.24-4.15-9.35-6.23-15.32-6.23s-11.21,2.1-15.45,6.3c-4.24,4.2-6.36,9.33-6.36,15.38s2.12,11.21,6.36,15.44c4.76,4.67,11.33,8.96,19.73,12.85,16.27,5.28,30.07,13.59,41.41,24.92,12.72,12.55,19.08,27.78,19.08,45.69s-6.34,33.21-19.02,45.89c-12.68,12.68-27.93,19.02-45.75,19.02s-33.19-6.36-45.82-19.08c-10.12-10.12-16.53-24.1-19.21-41.93l26.09-9.48c1.64,15.32,5.67,26.18,12.07,32.58,7.44,7.44,16.4,11.16,26.87,11.16s19.42-3.72,26.87-11.16c7.44-7.44,11.17-16.44,11.17-27s-3.72-19.43-11.17-26.87c-7.1-7.09-15.79-12.76-26.09-17Z"/>
          <path class="cls-1" d="M1811.45,153.33l75.55,207.69h-28.56l-26.74-73.47h-55.04l-26.61,73.47h-28.69l75.55-207.69h14.54ZM1821.97,260.68l-17.78-48.68-17.65,48.68h35.44Z"/>
        </g>
        <g>
          <path class="cls-1" d="M995.95,554.12c-1.72,0-3.04-.49-3.98-1.46s-1.4-2.36-1.4-4.16v-72.93c0-1.87.47-3.28,1.4-4.22s2.26-1.4,3.98-1.4,3.16.47,4.1,1.4,1.4,2.34,1.4,4.22v31.26h47.76v-31.26c0-1.87.47-3.28,1.4-4.22.94-.94,2.3-1.4,4.1-1.4s3.04.47,3.98,1.4,1.4,2.34,1.4,4.22v72.93c0,1.8-.47,3.18-1.4,4.16s-2.26,1.46-3.98,1.46-3.16-.49-4.1-1.46c-.94-.98-1.4-2.36-1.4-4.16v-32.43h-47.76v32.43c0,1.8-.45,3.18-1.35,4.16-.9.98-2.28,1.46-4.16,1.46Z"/>
          <path class="cls-1" d="M1115.24,554.35c-7.81,0-14.56-1.74-20.25-5.21-5.7-3.47-10.13-8.39-13.29-14.75-3.16-6.36-4.74-13.83-4.74-22.42,0-6.48.9-12.31,2.69-17.5,1.79-5.19,4.35-9.64,7.67-13.35,3.32-3.71,7.33-6.54,12.06-8.49,4.72-1.95,10.01-2.93,15.86-2.93,7.8,0,14.55,1.72,20.25,5.15,5.7,3.43,10.11,8.31,13.23,14.63,3.12,6.32,4.68,13.78,4.68,22.36,0,6.48-.9,12.33-2.69,17.56-1.8,5.23-4.35,9.72-7.67,13.46-3.32,3.75-7.32,6.6-12,8.54-4.68,1.95-9.95,2.93-15.8,2.93ZM1115.24,544.75c5.62,0,10.42-1.29,14.4-3.86,3.98-2.58,7.04-6.32,9.19-11.24,2.15-4.92,3.22-10.81,3.22-17.68,0-10.38-2.32-18.42-6.97-24.11-4.64-5.7-11.26-8.54-19.84-8.54-5.62,0-10.44,1.27-14.46,3.8-4.02,2.54-7.08,6.25-9.19,11.12-2.11,4.88-3.16,10.79-3.16,17.74,0,10.3,2.34,18.34,7.02,24.11,4.68,5.78,11.28,8.67,19.78,8.67Z"/>
          <path class="cls-1" d="M1197.3,554.35c-3.67,0-7.22-.29-10.65-.88-3.44-.59-6.67-1.46-9.72-2.63-3.04-1.17-5.78-2.61-8.19-4.33-1.02-.7-1.74-1.56-2.17-2.58-.43-1.01-.55-2.01-.35-2.98.19-.98.62-1.81,1.29-2.52.66-.7,1.46-1.13,2.4-1.29.94-.15,1.95.16,3.04.94,3.59,2.42,7.36,4.18,11.3,5.27,3.94,1.09,8.29,1.64,13.05,1.64,6.87,0,11.92-1.25,15.16-3.75,3.24-2.5,4.86-5.77,4.86-9.83,0-3.36-1.17-5.99-3.51-7.9-2.34-1.91-6.28-3.41-11.82-4.51l-12.41-2.58c-7.34-1.56-12.82-4.13-16.45-7.73-3.63-3.59-5.44-8.39-5.44-14.4,0-3.67.74-7,2.22-10.01,1.48-3,3.59-5.6,6.32-7.79,2.73-2.19,5.95-3.86,9.66-5.03,3.71-1.17,7.82-1.76,12.35-1.76,4.84,0,9.38.66,13.64,1.99,4.25,1.33,8.09,3.28,11.53,5.85.93.7,1.56,1.54,1.87,2.52.31.98.37,1.93.18,2.87-.2.94-.63,1.72-1.29,2.34-.66.63-1.48.98-2.46,1.05-.98.08-2.05-.27-3.22-1.05-3.12-2.18-6.32-3.76-9.6-4.74-3.28-.98-6.87-1.47-10.77-1.47s-7.43.63-10.36,1.87c-2.93,1.25-5.19,2.99-6.79,5.21-1.6,2.22-2.4,4.82-2.4,7.78,0,3.59,1.09,6.4,3.28,8.43,2.18,2.03,5.85,3.59,11,4.68l12.29,2.46c7.8,1.64,13.6,4.16,17.38,7.55,3.79,3.39,5.68,7.94,5.68,13.64,0,3.59-.72,6.83-2.17,9.72-1.45,2.89-3.49,5.37-6.15,7.43-2.65,2.07-5.89,3.67-9.72,4.8-3.82,1.13-8.12,1.7-12.88,1.7Z"/>
          <path class="cls-1" d="M1266.48,554.12c-1.79,0-3.16-.49-4.1-1.46-.94-.98-1.4-2.36-1.4-4.16v-68.48h-25.64c-1.48,0-2.65-.41-3.51-1.23-.86-.82-1.29-1.97-1.29-3.45s.43-2.61,1.29-3.39c.86-.78,2.03-1.17,3.51-1.17h62.16c1.56,0,2.75.39,3.57,1.17.82.78,1.23,1.91,1.23,3.39s-.41,2.64-1.23,3.45-2.01,1.23-3.57,1.23h-25.64v68.48c0,1.8-.45,3.18-1.35,4.16-.9.98-2.24,1.46-4.04,1.46Z"/>
          <path class="cls-1" d="M1301.72,554.12c-1.41,0-2.52-.31-3.34-.94-.82-.62-1.31-1.48-1.46-2.57-.16-1.09.08-2.3.7-3.63l31.96-72.34c.7-1.64,1.6-2.83,2.69-3.57,1.09-.74,2.3-1.11,3.63-1.11s2.52.37,3.57,1.11c1.05.74,1.97,1.93,2.75,3.57l31.96,72.34c.62,1.33.88,2.56.76,3.69-.12,1.13-.57,1.99-1.35,2.58-.78.59-1.87.88-3.28.88-1.56,0-2.81-.41-3.74-1.23-.94-.82-1.76-2.01-2.46-3.57l-8.31-19.43,5.03,2.81h-50.1l5.03-2.81-8.31,19.43c-.7,1.72-1.48,2.95-2.34,3.69-.86.74-1.99,1.11-3.39,1.11ZM1335.67,483.06l-18.26,43.19-2.81-2.46h42.38l-2.69,2.46-18.38-43.19h-.23Z"/>
          <path class="cls-1" d="M1394.2,553.3c-1.72,0-3.06-.51-4.04-1.52-.98-1.01-1.46-2.38-1.46-4.1v-71.88c0-1.79.47-3.16,1.4-4.1s2.26-1.4,3.98-1.4,3.16.47,4.1,1.4,1.41,2.3,1.41,4.1v68.13h37.23c1.64,0,2.87.39,3.69,1.17.82.78,1.23,1.91,1.23,3.39,0,1.56-.41,2.75-1.23,3.57-.82.82-2.05,1.23-3.69,1.23h-42.61Z"/>
        </g>
        <g>
          <path class="cls-1" d="M242.75,611.95c-115.65,0-209.75-94.1-209.75-209.75v-156.35c0-115.65,94.1-209.75,209.75-209.75s209.75,94.1,209.75,209.75v156.35c0,115.65-94.1,209.75-209.75,209.75ZM242.75,53.58c-106,0-192.26,86.26-192.26,192.26v156.35c0,106,86.26,192.26,192.26,192.26s192.26-86.26,192.26-192.26v-156.35c0-106-86.26-192.26-192.26-192.26Z"/>
          <path class="cls-1" d="M401.4,516.84c-47.33-46.69-112.68-71.3-174.81-65.83-57.18,6.11-108.05,29.48-143.08,65.67l-12.59-12.18c37.88-39.17,92.57-64.34,153.98-70.94,67.32-5.95,137.81,20.51,188.76,70.78l-12.31,12.47.04.04Z"/>
          <g>
            <path class="cls-1" d="M169.85,457.65c-4.83,0-8.77-3.9-8.77-8.77v-97.68c0-4.83,3.9-8.77,8.77-8.77s8.77,3.9,8.77,8.77v97.68c0,4.83-3.9,8.77-8.77,8.77Z"/>
            <path class="cls-1" d="M318.76,457.65c-4.83,0-8.77-3.9-8.77-8.77v-95.75c0-4.83,3.9-8.77,8.77-8.77s8.77,3.9,8.77,8.77v95.75c0,4.83-3.9,8.77-8.77,8.77Z"/>
            <path class="cls-1" d="M333.64,364.15c-1.57,0-3.18-.44-4.62-1.33l-79.3-49.74c-4.58-2.9-10.54-2.9-15.16,0l-78.82,49.7c-4.1,2.57-9.49,1.37-12.06-2.73-2.57-4.1-1.37-9.49,2.73-12.06l78.82-49.7c10.25-6.47,23.52-6.47,33.78-.04l79.3,49.74c4.1,2.57,5.31,7.96,2.77,12.06-1.65,2.65-4.5,4.1-7.4,4.1h-.04Z"/>
          </g>
          <g>
            <path class="cls-1" d="M263.83,436.42h-42.91v-31.41c0-11.3,9.17-20.51,20.51-20.51h1.93c11.3,0,20.51,9.17,20.51,20.51v31.41h-.04Z"/>
            <circle class="cls-1" cx="242.35" cy="360.69" r="18.74"/>
          </g>
          <path class="cls-1" d="M41.97,359.53c-2.37,0-4.7-.97-6.43-2.82-3.26-3.54-3.06-9.09.52-12.35,1.49-1.41,13.39-13.83,24.85-25.82,11.74-12.27,25.01-26.18,35.03-36.47,11.02-11.38,28.83-11.9,40.5-1.17l48.3,44.23c3.58,3.26,3.82,8.81.52,12.35-3.26,3.58-8.81,3.82-12.35.52l-48.3-44.23c-4.66-4.26-11.74-4.06-16.13.48-9.97,10.29-23.24,24.17-34.95,36.39-15.68,16.41-23.93,25.01-25.66,26.62-1.69,1.53-3.82,2.33-5.91,2.33v-.08Z"/>
          <path class="cls-1" d="M441.49,359.53c-2.13,0-4.22-.76-5.91-2.29-2.94-2.69-35.95-36.8-63.18-64.9-3.26-3.34-8.49-3.5-11.9-.32l-49.95,46c-3.54,3.26-9.09,3.06-12.35-.52-3.26-3.54-3.06-9.09.52-12.35l49.95-46c10.46-9.65,26.46-9.21,36.35,1.05,37.04,38.28,60.36,62.29,62.45,64.22,3.54,3.3,3.78,8.81.48,12.35-1.73,1.85-4.06,2.82-6.43,2.82l-.04-.04Z"/>
          <path class="cls-1" d="M344.82,299.89c-4.83,0-8.77-3.9-8.77-8.77,0-51.67-42.02-93.7-93.7-93.7s-93.7,42.02-93.7,93.7c0,4.83-3.9,8.77-8.77,8.77s-8.77-3.9-8.77-8.77c0-61.33,49.86-111.19,111.19-111.19s111.19,49.86,111.19,111.19c0,4.83-3.9,8.77-8.77,8.77h.08Z"/>
          <path class="cls-1" d="M116.56,249.91H42.69c-4.83,0-8.77-3.9-8.77-8.77s3.9-8.77,8.77-8.77h73.87c4.83,0,8.77,3.9,8.77,8.77s-3.9,8.77-8.77,8.77Z"/>
          <path class="cls-1" d="M166.51,185.85c-2.17,0-4.38-.8-6.07-2.45l-70.86-68.12c-3.5-3.34-3.58-8.89-.24-12.39,3.34-3.5,8.89-3.58,12.39-.24l70.86,68.12c3.5,3.34,3.58,8.89.24,12.39-1.73,1.77-4.02,2.69-6.31,2.69h0Z"/>
          <path class="cls-1" d="M442.05,249.91h-73.87c-4.83,0-8.77-3.9-8.77-8.77s3.9-8.77,8.77-8.77h73.87c4.83,0,8.77,3.9,8.77,8.77s-3.9,8.77-8.77,8.77Z"/>
          <path class="cls-1" d="M318.24,185.85c-2.29,0-4.58-.88-6.31-2.69-3.34-3.5-3.26-9.01.24-12.39l70.86-68.12c3.5-3.34,9.01-3.26,12.39.24,3.34,3.5,3.26,9.01-.24,12.39l-70.86,68.12c-1.69,1.65-3.86,2.45-6.07,2.45h0Z"/>
          <path class="cls-1" d="M243.88,166.38c-4.83,0-8.77-3.9-8.77-8.77V44.82c0-4.83,3.9-8.77,8.77-8.77s8.77,3.9,8.77,8.77v112.8c0,4.83-3.9,8.77-8.77,8.77Z"/>
        </g>
      </g>
    </g>
  </g>
</svg>